<svg width="48" height="48" viewBox="0 0 48 48" fill="none" xmlns="http://www.w3.org/2000/svg">
<circle cx="24" cy="24" r="24" fill="#FFD02F"/>
<circle cx="24" cy="24" r="18.0822" fill="#FFD02F"/>
<path d="M20.3161 27.3966L19.0369 27.1161V23.8524C19.0369 23.2915 18.6276 22.8835 18.0136 22.8835C17.3996 22.8835 16.9903 23.2915 16.9903 23.8524V27.3966L15.7112 27.1161V23.8524C15.7112 23.2915 15.2763 22.8835 14.6879 22.8835C14.0483 22.8835 13.639 23.2915 13.639 23.8524V27.3966L12.3598 27.1161V21.9911L13.639 21.7361V22.3226C13.9971 21.8891 14.56 21.6341 15.1739 21.6341C15.6088 21.6341 16.1461 21.7871 16.581 22.1951C17.0159 21.7871 17.502 21.6341 18.116 21.6341C19.0114 21.6341 20.3161 22.2461 20.3161 23.9034V27.3966ZM32.7237 27.4221C34.3355 27.4221 35.6402 26.1217 35.6402 24.5154C35.6402 22.9345 34.3355 21.6341 32.7237 21.6341C31.0864 21.6341 29.7817 22.9345 29.7817 24.5154C29.7817 26.1217 31.0864 27.4221 32.7237 27.4221ZM32.7237 26.2237C31.7772 26.2237 31.0097 25.4588 31.0097 24.5154C31.0097 23.5974 31.7772 22.8325 32.7237 22.8325C33.6447 22.8325 34.4122 23.5974 34.4122 24.5154C34.4122 25.4588 33.6447 26.2237 32.7237 26.2237ZM28.0677 21.7361L28.8096 21.6086V22.9345L28.0677 23.062C27.4281 23.1895 27.0188 23.521 27.0188 24.2349V27.3711L25.7396 27.1161V24.0309C25.7396 22.501 26.6606 22.0421 28.0677 21.7361ZM22.465 19.4923C22.158 19.7983 22.158 20.3083 22.465 20.6397C22.772 20.9457 23.3093 20.9457 23.6163 20.6397C23.9488 20.3083 23.9488 19.7983 23.6163 19.4923C23.3093 19.1864 22.772 19.1864 22.465 19.4923ZM22.3883 27.1161L23.6674 27.4221V21.6851L22.3883 21.9656V27.1161Z" fill="#111827"/>
</svg>
