<svg width="20" height="20" viewBox="0 0 20 20" fill="none" xmlns="http://www.w3.org/2000/svg">
<path fill-rule="evenodd" clip-rule="evenodd" d="M12.586 4.586C12.7705 4.39498 12.9912 4.24261 13.2352 4.13779C13.4792 4.03298 13.7416 3.9778 14.0072 3.9755C14.2727 3.97319 14.5361 4.02379 14.7819 4.12435C15.0277 4.22491 15.251 4.37342 15.4388 4.56121C15.6266 4.74899 15.7751 4.9723 15.8756 5.21809C15.9762 5.46388 16.0268 5.72724 16.0245 5.9928C16.0222 6.25836 15.967 6.5208 15.8622 6.76481C15.7574 7.00881 15.605 7.2295 15.414 7.414L12.414 10.414C12.0389 10.7889 11.5303 10.9996 11 10.9996C10.4697 10.9996 9.96105 10.7889 9.58599 10.414C9.39739 10.2318 9.14478 10.131 8.88259 10.1333C8.62039 10.1356 8.36958 10.2408 8.18417 10.4262C7.99876 10.6116 7.89359 10.8624 7.89131 11.1246C7.88904 11.3868 7.98983 11.6394 8.17199 11.828C8.9221 12.5779 9.93933 12.9991 11 12.9991C12.0606 12.9991 13.0779 12.5779 13.828 11.828L16.828 8.828C17.5566 8.07359 17.9598 7.06318 17.9507 6.01439C17.9416 4.9656 17.5209 3.96235 16.7793 3.22072C16.0376 2.47909 15.0344 2.05841 13.9856 2.0493C12.9368 2.04019 11.9264 2.44336 11.172 3.172L9.67199 4.672C9.57648 4.76424 9.5003 4.87459 9.44789 4.99659C9.39548 5.1186 9.36789 5.24982 9.36674 5.38259C9.36558 5.51537 9.39089 5.64705 9.44117 5.76995C9.49145 5.89285 9.5657 6.0045 9.65959 6.09839C9.75349 6.19228 9.86514 6.26654 9.98803 6.31682C10.1109 6.3671 10.2426 6.3924 10.3754 6.39125C10.5082 6.39009 10.6394 6.36251 10.7614 6.3101C10.8834 6.25769 10.9937 6.18151 11.086 6.086L12.586 4.586ZM7.58599 9.586C7.96104 9.21105 8.46966 9.00042 8.99999 9.00042C9.53032 9.00042 10.0389 9.21105 10.414 9.586C10.5062 9.68151 10.6166 9.75769 10.7386 9.8101C10.8606 9.86251 10.9918 9.89009 11.1246 9.89125C11.2574 9.8924 11.389 9.8671 11.5119 9.81682C11.6348 9.76654 11.7465 9.69228 11.8404 9.59839C11.9343 9.5045 12.0085 9.39285 12.0588 9.26995C12.1091 9.14705 12.1344 9.01537 12.1332 8.8826C12.1321 8.74982 12.1045 8.6186 12.0521 8.49659C11.9997 8.37459 11.9235 8.26424 11.828 8.172C11.0779 7.42211 10.0606 7.00085 8.99999 7.00085C7.93933 7.00085 6.9221 7.42211 6.17199 8.172L3.17199 11.172C2.78995 11.541 2.48522 11.9824 2.27558 12.4704C2.06595 12.9584 1.9556 13.4833 1.95099 14.0144C1.94637 14.5455 2.04758 15.0722 2.2487 15.5638C2.44983 16.0554 2.74684 16.502 3.12241 16.8776C3.49798 17.2531 3.94459 17.5502 4.43617 17.7513C4.92776 17.9524 5.45448 18.0536 5.98559 18.049C6.51671 18.0444 7.04159 17.934 7.52961 17.7244C8.01762 17.5148 8.459 17.21 8.82799 16.828L10.328 15.328C10.4235 15.2357 10.4997 15.1254 10.5521 15.0034C10.6045 14.8814 10.6321 14.7502 10.6332 14.6174C10.6344 14.4846 10.6091 14.3529 10.5588 14.23C10.5085 14.1071 10.4343 13.9955 10.3404 13.9016C10.2465 13.8077 10.1348 13.7335 10.0119 13.6832C9.88905 13.6329 9.75737 13.6076 9.62459 13.6087C9.49181 13.6099 9.36059 13.6375 9.23858 13.6899C9.11658 13.7423 9.00624 13.8185 8.91399 13.914L7.41399 15.414C7.2295 15.605 7.00881 15.7574 6.7648 15.8622C6.52079 15.967 6.25835 16.0222 5.99279 16.0245C5.72723 16.0268 5.46387 15.9762 5.21808 15.8756C4.97229 15.7751 4.74898 15.6266 4.5612 15.4388C4.37341 15.251 4.22491 15.0277 4.12435 14.7819C4.02378 14.5361 3.97318 14.2728 3.97549 14.0072C3.9778 13.7416 4.03297 13.4792 4.13779 13.2352C4.2426 12.9912 4.39497 12.7705 4.58599 12.586L7.58599 9.586Z" fill="#111827"/>
</svg>
