<svg width="20" height="20" viewBox="0 0 20 20" fill="none" xmlns="http://www.w3.org/2000/svg">
<path d="M5 5C4.44772 5 4 5.44772 4 6C4 6.55228 4.44772 7 5 7H16C16.5523 7 17 6.55228 17 6C17 5.44772 16.5523 5 16 5H5Z" fill="#111827"/>
<path d="M7.00003 9C6.44775 9 6.00003 9.44772 6.00003 10C6.00003 10.5523 6.44775 11 7.00003 11H14C14.5523 11 15 10.5523 15 10C15 9.44772 14.5523 9 14 9H7.00003Z" fill="#111827"/>
<path d="M9 13C8.44772 13 8 13.4477 8 14C8 14.5523 8.44772 15 9 15H13C13.5523 15 14 14.5523 14 14C14 13.4477 13.5523 13 13 13H9Z" fill="#111827"/>
</svg>
