<svg width="20" height="20" viewBox="0 0 20 20" fill="none" xmlns="http://www.w3.org/2000/svg">
<path fill-rule="evenodd" clip-rule="evenodd" d="M5.2 5.20001C5.2 4.77566 5.36857 4.36869 5.66863 4.06864C5.96869 3.76858 6.37566 3.60001 6.8 3.60001H13.2C13.6243 3.60001 14.0313 3.76858 14.3314 4.06864C14.6314 4.36869 14.8 4.77566 14.8 5.20001V14.8C15.0122 14.8 15.2157 14.8843 15.3657 15.0343C15.5157 15.1843 15.6 15.3878 15.6 15.6C15.6 15.8122 15.5157 16.0157 15.3657 16.1657C15.2157 16.3157 15.0122 16.4 14.8 16.4H12.4C12.1878 16.4 11.9843 16.3157 11.8343 16.1657C11.6843 16.0157 11.6 15.8122 11.6 15.6V14C11.6 13.7878 11.5157 13.5843 11.3657 13.4343C11.2157 13.2843 11.0122 13.2 10.8 13.2H9.2C8.98783 13.2 8.78435 13.2843 8.63432 13.4343C8.48429 13.5843 8.4 13.7878 8.4 14V15.6C8.4 15.8122 8.31572 16.0157 8.16569 16.1657C8.01566 16.3157 7.81218 16.4 7.6 16.4H5.2C4.98783 16.4 4.78435 16.3157 4.63432 16.1657C4.48429 16.0157 4.4 15.8122 4.4 15.6C4.4 15.3878 4.48429 15.1843 4.63432 15.0343C4.78435 14.8843 4.98783 14.8 5.2 14.8V5.20001ZM7.6 6.00001H9.2V7.60001H7.6V6.00001ZM9.2 9.20001H7.6V10.8H9.2V9.20001ZM10.8 6.00001H12.4V7.60001H10.8V6.00001ZM12.4 9.20001H10.8V10.8H12.4V9.20001Z" fill="#6B7280"/>
</svg>
